<svg viewBox="0 0 48 48" xmlns="http://www.w3.org/2000/svg" role="img" aria-label="Document">
  <defs><linearGradient id="tile" x1="0" y1="0" x2="1" y2="1">
    <stop offset="0" stop-color="#14BC7B"/><stop offset="1" stop-color="#085C3B"/>
  </linearGradient></defs>
  <rect width="48" height="48" rx="11" fill="url(#tile)"/>
  <path d="M17 12 h9 l6 6 v16 a2 2 0 0 1-2 2 H17 a2 2 0 0 1-2-2 V14 a2 2 0 0 1 2-2 Z" fill="#FDFBF5"/>
  <path d="M26 12 v4 a2 2 0 0 0 2 2 h4 Z" fill="#DFE9E1"/>
  <g fill="#BFDBCB"><rect x="19.5" y="22" width="9" height="1.7" rx="0.85"/><rect x="19.5" y="26" width="9" height="1.7" rx="0.85"/><rect x="19.5" y="30" width="6.5" height="1.7" rx="0.85"/></g>
</svg>
